<svg id="Layer_1" data-name="Layer 1" xmlns="http://www.w3.org/2000/svg" xmlns:xlink="http://www.w3.org/1999/xlink" viewBox="0 0 600 200"><defs><style>.cls-1{fill:url(#linear-gradient);}.cls-2{fill:url(#linear-gradient-2);}.cls-3{fill:url(#linear-gradient-3);}.cls-4{fill:url(#linear-gradient-4);}.cls-5{fill:url(#linear-gradient-6);}.cls-6{fill:url(#linear-gradient-7);}.cls-7{fill:url(#linear-gradient-8);}.cls-8{fill:url(#linear-gradient-9);}.cls-9{fill:url(#linear-gradient-10);}.cls-10{fill:url(#linear-gradient-11);}.cls-11{fill:url(#linear-gradient-12);}.cls-12{font-size:14.24px;fill:#231f20;font-family:Montserrat-Bold, Montserrat;font-weight:700;letter-spacing:0.72em;}.cls-13{letter-spacing:0.71em;}.cls-14{letter-spacing:0.72em;}.cls-15{letter-spacing:0.69em;}</style><linearGradient id="linear-gradient" x1="22.59" y1="100" x2="128.36" y2="100" gradientUnits="userSpaceOnUse"><stop offset="0" stop-color="#9e1f63"/><stop offset="0.09" stop-color="#ab255b"/><stop offset="0.31" stop-color="#c6304c"/><stop offset="0.53" stop-color="#d93842"/><stop offset="0.76" stop-color="#e43c3b"/><stop offset="1" stop-color="#e83e39"/></linearGradient><linearGradient id="linear-gradient-2" x1="11.31" y1="100" x2="139.64" y2="100" xlink:href="#linear-gradient"/><linearGradient id="linear-gradient-3" x1="7.34" y1="100" x2="143.61" y2="100" xlink:href="#linear-gradient"/><linearGradient id="linear-gradient-4" x1="24.57" y1="100" x2="126.37" y2="100" xlink:href="#linear-gradient"/><linearGradient id="linear-gradient-6" x1="40.58" y1="100.48" x2="125.58" y2="100.48" gradientUnits="userSpaceOnUse"><stop offset="0" stop-color="#006e9c"/><stop offset="0" stop-color="#006894"/><stop offset="0" stop-color="#003c55"/><stop offset="0" stop-color="#001b27"/><stop offset="0" stop-color="#00070b"/><stop offset="0"/><stop offset="0" stop-color="#002f16"/><stop offset="0" stop-color="#007537"/><stop offset="1" stop-color="#097b38"/></linearGradient><linearGradient id="linear-gradient-7" x1="132.88" y1="100.48" x2="208.67" y2="100.48" xlink:href="#linear-gradient"/><linearGradient id="linear-gradient-8" x1="209.46" y1="100.48" x2="287.16" y2="100.48" xlink:href="#linear-gradient"/><linearGradient id="linear-gradient-9" x1="269.78" y1="100" x2="366.52" y2="100" xlink:href="#linear-gradient"/><linearGradient id="linear-gradient-10" x1="372.77" y1="100.48" x2="449.69" y2="100.48" xlink:href="#linear-gradient"/><linearGradient id="linear-gradient-11" x1="459.08" y1="100.48" x2="477.07" y2="100.48" xlink:href="#linear-gradient"/><linearGradient id="linear-gradient-12" x1="483.76" y1="100" x2="580.5" y2="100" xlink:href="#linear-gradient"/></defs><title>SVG Octapia Logo 750.200</title><polygon class="cls-1" points="124.39 73.24 124.39 71.76 75.48 43.52 26.56 71.76 26.56 128.24 75.48 156.48 124.39 128.24 124.39 126.77 128.36 126.77 128.36 130.54 75.48 161.07 22.59 130.54 22.59 69.47 75.48 38.94 128.36 69.47 128.36 73.24 124.39 73.24"/><polygon class="cls-2" points="135.67 73.24 135.67 65.25 75.48 30.49 15.28 65.25 15.28 134.76 75.48 169.51 135.67 134.76 135.67 126.77 139.64 126.77 139.64 137.05 75.48 174.09 11.31 137.05 11.31 62.95 75.48 25.91 139.64 62.95 139.64 73.24 135.67 73.24"/><path class="cls-3" d="M143.61,73.24V60.66L75.48,21.32,7.34,60.66v78.68l68.14,39.34,68.13-39.34V126.77h-7.94v8L75.48,169.51l-60.2-34.75V65.25l60.2-34.76,60.19,34.76v8Z"/><polygon class="cls-4" points="124.39 73.24 124.39 71.76 75.48 43.52 26.56 71.76 26.56 128.24 75.48 156.48 124.39 128.24 124.39 126.76 126.37 126.76 126.37 129.38 75.48 158.77 24.57 129.38 24.57 70.61 75.48 41.23 126.37 70.61 126.37 73.24 124.39 73.24"/><path class="cls-1" d="M128.36,73.24V69.47L75.48,38.94,22.59,69.47v61.07l52.89,30.53,52.88-30.53v-3.77h-4v1.47L75.48,156.48,26.56,128.24V71.76L75.48,43.52l48.91,28.24v1.48Z"/><path class="cls-5" d="M83.08,70.45q21.21,0,31.86,7.21t10.64,22.77q0,15.64-10.6,22.86t-31.9,7.22q-21.37,0-31.94-7.22T40.58,100.43q0-15.56,10.6-22.77T83.08,70.45Zm0,44.93a97.57,97.57,0,0,0,11.47-.56,20.48,20.48,0,0,0,7.61-2.22,9.72,9.72,0,0,0,4.21-4.56,18.78,18.78,0,0,0,1.31-7.61,18.76,18.76,0,0,0-1.31-7.6,9.5,9.5,0,0,0-4.21-4.52,20.9,20.9,0,0,0-7.61-2.17,97.32,97.32,0,0,0-11.47-.57,97.32,97.32,0,0,0-11.47.57A20.9,20.9,0,0,0,64,88.31a9.5,9.5,0,0,0-4.21,4.52,18.76,18.76,0,0,0-1.31,7.6A18.78,18.78,0,0,0,59.79,108,9.72,9.72,0,0,0,64,112.6a20.48,20.48,0,0,0,7.61,2.22A97.57,97.57,0,0,0,83.08,115.38Z"/><path class="cls-6" d="M208.67,114.6l-11.55,15H167.91a41.85,41.85,0,0,1-14-2.26,34.47,34.47,0,0,1-11.08-6.21,28.76,28.76,0,0,1-7.31-9.39,26.6,26.6,0,0,1-2.65-11.78,25.5,25.5,0,0,1,2.65-11.6,27.38,27.38,0,0,1,7.31-9,33.21,33.21,0,0,1,11.08-5.82,46.06,46.06,0,0,1,14-2h40.76L197.12,86.53H167.91a21.5,21.5,0,0,0-6.78,1,16.89,16.89,0,0,0-5.39,2.91A13.83,13.83,0,0,0,152.18,95a12.81,12.81,0,0,0,3.52,15.82,17,17,0,0,0,5.43,2.82,22.09,22.09,0,0,0,6.78,1Z"/><path class="cls-7" d="M287.16,71.4,275.51,86.53H254.74v43h-18v-43H209.46L221.1,71.4Z"/><path class="cls-8" d="M298.89,129.55l10.87-15h20c1.89,0,3.52.06,4.91.18-.81-1-1.75-2.36-2.82-4s-2.1-3.08-3.09-4.48L318.36,91l-27.29,38.59H269.78L307.06,77a20.23,20.23,0,0,1,4.61-4.52,13.38,13.38,0,0,1,13.86-.13A17.43,17.43,0,0,1,330.18,77l36.34,52.58Z"/><path class="cls-9" d="M449.69,93.22a19.88,19.88,0,0,1-1.91,8.82,18.37,18.37,0,0,1-5.6,6.74,28.13,28.13,0,0,1-9,4.34,42.42,42.42,0,0,1-12.08,1.57H390.68v14.86H372.77V99.83h50.07A10.15,10.15,0,0,0,429.31,98a5.9,5.9,0,0,0,2.31-4.87,5.78,5.78,0,0,0-2.31-4.82,10.33,10.33,0,0,0-6.47-1.78H372.77L384.68,71.4h36.51A41.71,41.71,0,0,1,433.27,73a27.22,27.22,0,0,1,9,4.48,19.18,19.18,0,0,1,5.56,6.86A20.26,20.26,0,0,1,449.69,93.22Z"/><path class="cls-10" d="M477.07,129.55h-18V71.4h18Z"/><path class="cls-11" d="M512.88,129.55l10.87-15h20c1.88,0,3.52.06,4.91.18-.81-1-1.75-2.36-2.82-4s-2.1-3.08-3.09-4.48L532.35,91l-27.29,38.59h-21.3L521.05,77a20,20,0,0,1,4.61-4.52,13.38,13.38,0,0,1,13.86-.13A17.43,17.43,0,0,1,544.17,77l36.33,52.58Z"/><text class="cls-12" transform="translate(151.48 151.66)"><tspan xml:space="preserve">TIMED  S</tspan><tspan class="cls-13" x="147.55" y="0">P</tspan><tspan class="cls-14" x="168.08" y="0">EE</tspan><tspan class="cls-15" x="207.7" y="0">D</tspan><tspan class="cls-14" x="229.28" y="0" xml:space="preserve">Y  </tspan><tspan class="cls-13" x="277.73" y="0">P</tspan><tspan class="cls-14" x="298.26" y="0">ROMISED</tspan></text></svg>