<svg id="Layer_1" data-name="Layer 1" xmlns="http://www.w3.org/2000/svg" xmlns:xlink="http://www.w3.org/1999/xlink" viewBox="0 0 750 200"><defs><style>.cls-1{fill:url(#linear-gradient);}.cls-2{fill:url(#linear-gradient-2);}.cls-3{fill:url(#linear-gradient-3);}.cls-4{fill:url(#linear-gradient-4);}.cls-5{fill:url(#linear-gradient-6);}.cls-6{fill:url(#linear-gradient-7);}.cls-7{fill:url(#linear-gradient-8);}.cls-8{fill:url(#linear-gradient-9);}.cls-9{fill:url(#linear-gradient-10);}.cls-10{fill:url(#linear-gradient-11);}.cls-11{fill:url(#linear-gradient-12);}.cls-12{fill:#231f20;}</style><linearGradient id="linear-gradient" x1="71.1" y1="100" x2="189.27" y2="100" gradientUnits="userSpaceOnUse"><stop offset="0" stop-color="#9d2063"/><stop offset="0.09" stop-color="#a9255c"/><stop offset="0.3" stop-color="#c4314d"/><stop offset="0.53" stop-color="#d73942"/><stop offset="0.76" stop-color="#e23d3b"/><stop offset="1" stop-color="#e63f39"/></linearGradient><linearGradient id="linear-gradient-2" x1="58.5" y1="100" x2="201.87" y2="100" xlink:href="#linear-gradient"/><linearGradient id="linear-gradient-3" x1="54.07" y1="100" x2="206.31" y2="100" xlink:href="#linear-gradient"/><linearGradient id="linear-gradient-4" x1="73.32" y1="100" x2="187.05" y2="100" xlink:href="#linear-gradient"/><linearGradient id="linear-gradient-6" x1="91.2" y1="100.53" x2="186.17" y2="100.53" gradientUnits="userSpaceOnUse"><stop offset="0" stop-color="#006e9c"/><stop offset="0" stop-color="#006894"/><stop offset="0" stop-color="#003c55"/><stop offset="0" stop-color="#001b27"/><stop offset="0" stop-color="#00070b"/><stop offset="0"/><stop offset="0" stop-color="#002f18"/><stop offset="0" stop-color="#00753c"/><stop offset="1" stop-color="#0b7c3f"/></linearGradient><linearGradient id="linear-gradient-7" x1="194.33" y1="100.53" x2="279" y2="100.53" xlink:href="#linear-gradient"/><linearGradient id="linear-gradient-8" x1="279.88" y1="100.53" x2="366.69" y2="100.53" xlink:href="#linear-gradient"/><linearGradient id="linear-gradient-9" x1="347.27" y1="100" x2="455.35" y2="100" xlink:href="#linear-gradient"/><linearGradient id="linear-gradient-10" x1="462.34" y1="100.53" x2="548.28" y2="100.53" xlink:href="#linear-gradient"/><linearGradient id="linear-gradient-11" x1="558.77" y1="100.53" x2="578.87" y2="100.53" xlink:href="#linear-gradient"/><linearGradient id="linear-gradient-12" x1="586.34" y1="100" x2="694.42" y2="100" xlink:href="#linear-gradient"/></defs><title>Untitled-2</title><polygon class="cls-1" points="184.84 70.11 184.84 68.45 130.19 36.9 75.54 68.45 75.54 131.55 130.19 163.1 184.84 131.55 184.84 129.9 189.27 129.9 189.27 134.12 130.19 168.23 71.1 134.12 71.1 65.89 130.19 31.78 189.27 65.89 189.27 70.11 184.84 70.11"/><polygon class="cls-2" points="197.44 70.11 197.44 61.17 130.19 22.34 62.94 61.17 62.94 138.84 130.19 177.66 197.44 138.84 197.44 129.9 201.87 129.9 201.87 141.39 130.19 182.78 58.5 141.39 58.5 58.61 130.19 17.23 201.87 58.61 201.87 70.11 197.44 70.11"/><path class="cls-3" d="M206.31,70.11V56.05L130.19,12.1,54.07,56.05V144l76.12,44,76.12-44v-14h-8.87v8.93l-67.25,38.83L62.93,138.83V61.17l67.26-38.83,67.25,38.83v8.94Z"/><polygon class="cls-4" points="184.83 70.11 184.83 68.45 130.19 36.9 75.54 68.45 75.54 131.55 130.19 163.1 184.83 131.55 184.83 129.9 187.05 129.9 187.05 132.83 130.19 165.66 73.32 132.83 73.32 67.17 130.19 34.33 187.05 67.17 187.05 70.11 184.83 70.11"/><path class="cls-1" d="M189.27,70.11V65.89L130.19,31.78,71.1,65.89v68.23l59.09,34.11,59.08-34.11V129.9h-4.43v1.65L130.19,163.1,75.54,131.55V68.45L130.19,36.9l54.65,31.55v1.66Z"/><path class="cls-5" d="M138.68,67q23.7,0,35.59,8.06t11.9,25.45q0,17.48-11.85,25.53t-35.64,8.06q-23.88,0-35.68-8.06T91.2,100.49q0-17.38,11.85-25.45T138.68,67Zm0,50.21a109.91,109.91,0,0,0,12.82-.63,22.76,22.76,0,0,0,8.5-2.48,10.86,10.86,0,0,0,4.71-5.1,21,21,0,0,0,1.46-8.49,21,21,0,0,0-1.46-8.5,10.61,10.61,0,0,0-4.71-5,23.38,23.38,0,0,0-8.5-2.43,109.91,109.91,0,0,0-12.82-.63,109.84,109.84,0,0,0-12.81.63,23.38,23.38,0,0,0-8.5,2.43,10.61,10.61,0,0,0-4.71,5,21,21,0,0,0-1.46,8.5,21,21,0,0,0,1.46,8.49,10.86,10.86,0,0,0,4.71,5.1,22.76,22.76,0,0,0,8.5,2.48A109.84,109.84,0,0,0,138.68,117.19Z"/><path class="cls-6" d="M279,116.31,266.09,133H233.46a46.67,46.67,0,0,1-15.63-2.53,38.73,38.73,0,0,1-12.39-6.94,32.12,32.12,0,0,1-8.15-10.49,29.5,29.5,0,0,1-3-13.16,28.32,28.32,0,0,1,3-13,30.69,30.69,0,0,1,8.15-10.1,37.38,37.38,0,0,1,12.39-6.51,51.43,51.43,0,0,1,15.63-2.28H279L266.09,85H233.46a24,24,0,0,0-7.57,1.16,18.61,18.61,0,0,0-6,3.26,15.36,15.36,0,0,0-4,5A14.3,14.3,0,0,0,219.82,112a19,19,0,0,0,6.07,3.16,24.87,24.87,0,0,0,7.57,1.11Z"/><path class="cls-7" d="M366.69,68.05l-13,16.9H330.47V133h-20.1V85H279.88l13-16.9Z"/><path class="cls-8" d="M379.8,133l12.14-16.71h22.38c2.11,0,3.93.07,5.49.2q-1.37-1.76-3.16-4.42c-1.2-1.78-2.34-3.45-3.45-5L401.55,89.9,371.06,133H347.27l41.66-58.75a22.44,22.44,0,0,1,5.14-5,14.94,14.94,0,0,1,15.49-.15,19.93,19.93,0,0,1,5.2,5.2L455.35,133Z"/><path class="cls-9" d="M548.28,92.43a22.24,22.24,0,0,1-2.14,9.85,20.46,20.46,0,0,1-6.26,7.53,31.14,31.14,0,0,1-10,4.85,47.57,47.57,0,0,1-13.5,1.75h-34V133h-20V99.81h55.93q4.66,0,7.24-2a6.6,6.6,0,0,0,2.57-5.44,6.47,6.47,0,0,0-2.57-5.39q-2.58-2-7.24-2H462.34l13.3-16.9h40.79a46.45,46.45,0,0,1,13.5,1.8,30.16,30.16,0,0,1,10,5,21.38,21.38,0,0,1,6.21,7.67A22.6,22.6,0,0,1,548.28,92.43Z"/><path class="cls-10" d="M578.87,133h-20.1v-65h20.1Z"/><path class="cls-11" d="M618.87,133,631,116.31H653.4c2.1,0,3.93.07,5.48.2-.9-1.17-2-2.64-3.15-4.42s-2.35-3.45-3.45-5L640.63,89.9,610.14,133h-23.8L628,74.27a22.49,22.49,0,0,1,5.15-5,14.94,14.94,0,0,1,15.49-.15,19.75,19.75,0,0,1,5.19,5.2L694.42,133Z"/><path class="cls-12" d="M218.73,148.68h-3.56v-2.1h9.7v2.1h-3.56v9h-2.58Z"/><path class="cls-12" d="M237.71,146.58h2.58v11.14h-2.58Z"/><path class="cls-12" d="M264.52,157.72l0-6.68-3.27,5.5h-1.17l-3.26-5.36v6.54h-2.42V146.58h2.13l4.17,6.92,4.11-6.92h2.12l0,11.14Z"/><path class="cls-12" d="M289.65,155.65v2.07H281V146.58h8.42v2.07h-5.86v2.42h5.17v2h-5.17v2.58Z"/><path class="cls-12" d="M303.16,146.58h5.06c3.64,0,6.14,2.2,6.14,5.57s-2.5,5.57-6.14,5.57h-5.06Zm4.93,9a3.46,3.46,0,1,0,0-6.9h-2.35v6.9Z"/><path class="cls-12" d="M358.79,156.62l.88-1.94a6.56,6.56,0,0,0,3.67,1.16c1.53,0,2.15-.51,2.15-1.19,0-2.09-6.48-.65-6.48-4.79,0-1.9,1.53-3.47,4.7-3.47a7.43,7.43,0,0,1,3.87,1l-.8,2a6.26,6.26,0,0,0-3.09-.87c-1.53,0-2.11.57-2.11,1.27,0,2.05,6.47.64,6.47,4.73,0,1.86-1.54,3.45-4.72,3.45A7.91,7.91,0,0,1,358.79,156.62Z"/><path class="cls-12" d="M390.93,150.62c0,2.49-1.86,4-4.84,4h-2.24v3.07h-2.58V146.58h4.82C389.07,146.58,390.93,148.12,390.93,150.62Zm-2.61,0c0-1.22-.8-1.94-2.37-1.94h-2.1v3.87H386C387.52,152.55,388.32,151.83,388.32,150.62Z"/><path class="cls-12" d="M412.84,155.65v2.07h-8.63V146.58h8.42v2.07h-5.86v2.42h5.17v2h-5.17v2.58Z"/><path class="cls-12" d="M435,155.65v2.07h-8.63V146.58h8.42v2.07H428.9v2.42h5.17v2H428.9v2.58Z"/><path class="cls-12" d="M448.47,146.58h5.06c3.64,0,6.14,2.2,6.14,5.57s-2.5,5.57-6.14,5.57h-5.06Zm4.93,9a3.46,3.46,0,1,0,0-6.9h-2.35v6.9Z"/><path class="cls-12" d="M477.93,153.77v3.95h-2.58v-4L471,146.58h2.74l3,4.95,3-4.95h2.53Z"/><path class="cls-12" d="M536.37,150.62c0,2.49-1.86,4-4.84,4h-2.24v3.07h-2.58V146.58h4.82C534.51,146.58,536.37,148.12,536.37,150.62Zm-2.61,0c0-1.22-.8-1.94-2.37-1.94h-2.1v3.87h2.1C533,152.55,533.76,151.83,533.76,150.62Z"/><path class="cls-12" d="M556.75,157.72l-2.15-3.1h-2.37v3.1h-2.58V146.58h4.82c3,0,4.84,1.54,4.84,4a3.64,3.64,0,0,1-2.29,3.52l2.5,3.58Zm-2.42-9h-2.1v3.88h2.1c1.57,0,2.37-.73,2.37-1.94S555.9,148.68,554.33,148.68Z"/><path class="cls-12" d="M572.1,152.15a6.1,6.1,0,1,1,6.09,5.76A5.76,5.76,0,0,1,572.1,152.15Zm9.58,0a3.49,3.49,0,1,0-3.49,3.57A3.4,3.4,0,0,0,581.68,152.15Z"/><path class="cls-12" d="M607.82,157.72l0-6.68-3.28,5.5h-1.16l-3.26-5.36v6.54h-2.42V146.58h2.13L604,153.5l4.11-6.92h2.11l0,11.14Z"/><path class="cls-12" d="M624.32,146.58h2.58v11.14h-2.58Z"/><path class="cls-12" d="M640.12,156.62l.88-1.94a6.58,6.58,0,0,0,3.67,1.16c1.53,0,2.15-.51,2.15-1.19,0-2.09-6.48-.65-6.48-4.79,0-1.9,1.53-3.47,4.7-3.47a7.43,7.43,0,0,1,3.87,1l-.8,2a6.26,6.26,0,0,0-3.09-.87c-1.52,0-2.11.57-2.11,1.27,0,2.05,6.47.64,6.47,4.73,0,1.86-1.54,3.45-4.72,3.45A7.91,7.91,0,0,1,640.12,156.62Z"/><path class="cls-12" d="M671.23,155.65v2.07H662.6V146.58H671v2.07h-5.86v2.42h5.18v2h-5.18v2.58Z"/><path class="cls-12" d="M684.73,146.58h5.06c3.65,0,6.14,2.2,6.14,5.57s-2.49,5.57-6.14,5.57h-5.06Zm4.93,9a3.46,3.46,0,1,0,0-6.9h-2.35v6.9Z"/></svg>